# xmcd
#
# Track frame offsets:
#       183
#       12190
#       33235
#       52233
#       65400
#       78340
#       95015
#       110498
#       133178
#       152105
#       166955
#       185960
#       202363
#       222658
#       235838
#
# Disc length: 3293 seconds
#
# Revision: 1
# Processed by: cddbd v1.4PL0 Copyright (c) Steve Scherf et al.
# Submitted via: MusiCat 1.1
#
DISCID=e30cdb0f
DTITLE=Lefthand Freddy and the Aces - Buried in Blues
DYEAR=1992
DGENRE=
TTITLE0=Bogalusa Stomp
TTITLE1=Heat or eat
TTITLE2=Breakdown Suzie
TTITLE3=Going back Home
TTITLE4=Trouble to make ends meet
TTITLE5=Call me Lefthand
TTITLE6=News from the Blues
TTITLE7=Ain't that just like a woman
TTITLE8=I got to know
TTITLE9=Little Miss Alcohol
TTITLE10=I heard a man singing
TTITLE11=Harry's stoptime
TTITLE12=Grievin' Blues
TTITLE13=Don't your house look lonesome
TTITLE14=Cool lovin'
EXTD=1992\n\n\nsubmitted by Stamppot
EXTT0=
EXTT1=
EXTT2=
EXTT3=
EXTT4=
EXTT5=
EXTT6=
EXTT7=
EXTT8=
EXTT9=
EXTT10=
EXTT11=
EXTT12=
EXTT13=
EXTT14=
PLAYORDER=
